<?xml version="1.0" encoding="utf-8"?>
<!-- Generator: Adobe Illustrator 23.0.3, SVG Export Plug-In . SVG Version: 6.00 Build 0)  -->
<svg version="1.1" id="Isolation_Mode" xmlns="http://www.w3.org/2000/svg" xmlns:xlink="http://www.w3.org/1999/xlink" x="0px"
	 y="0px" viewBox="0 0 43.1 43.36" style="enable-background:new 0 0 43.1 43.36;" xml:space="preserve">
<style type="text/css">
	.st0{fill:#2B51CB;}
</style>
<g>
	<g>
		<path class="st0" d="M26.6,37.03c1.6,0,3.1,0.1,4.7,0c2.9-0.2,5.8-0.5,8.8-0.5c0.7,0,2.1,0.4,2,1.2s-1.3,1-2,1.1
			c-5.3,0.4-10.6,0.7-15.9,1c-0.7,0-1.3,0.3-1.9,0.3c0,0.2,0,0.3,0,0.6c0.9,0.1,1.9,0.3,2.8,0.3c5.1,0,10.3,0,15.3,0
			c0.7,0,1.4,0.1,2,0.3c0.3,0.2,0.7,0.8,0.7,1.1c-0.1,0.3-0.6,0.7-1,0.8c-0.5,0.2-1.1,0.1-1.7,0.1c-12.5,0-24.9,0-37.5,0
			c-0.3,0-2.8,0-2.9-0.9c0-0.9,1.3-1.3,2-1.3c5.5-0.1,11-0.1,16.5-0.1c0.7,0,1.3-0.2,2.1-0.3c0-0.2,0-0.4,0-0.6
			c-0.6-0.1-1.2-0.3-1.8-0.3c-5.3-0.3-10.6-0.6-15.9-0.9c-0.7-0.1-2.1-0.1-1.9-1s1.5-1.3,2.2-1.3c3.7,0.1,7.4,0.4,11.1,0.7
			c0.8,0.1,1.6,0,2.4,0c0.1-0.3,0.1-0.6,0.2-0.8c-2.6-0.6-5.2-1.3-7.9-1.8c-1.8-0.3-3.6-0.3-5.4-0.7c-0.4-0.1-1.4-0.3-1.3-1.1
			s1.1-1.1,1.6-1c5.9,0.5,11.9,0.7,17,4.3c0.4,0.3,1.3,0.3,1.7,0c4.5-3,9.5-3.9,14.7-4.1c0.7,0,3.9,0,4,0.8s-0.8,1.1-1.3,1.2
			c-1.7,0.3-3.4,0.4-5,0.7c-2.8,0.5-5.6,1.1-8.3,1.6C26.6,36.53,26.6,36.73,26.6,37.03z"/>
		<path class="st0" d="M32,10.03c0.1,4.9-1.9,8.2-5.6,10.5c-0.7,0.4-2.2,1-2.7,0.3c-0.5-0.8,0.7-1.8,1.3-2.2
			c5.2-3.5,6.2-10.4,1.9-14.4c-2.3-2.1-5.1-2.2-7.7-1.5c-2.7,0.7-4.5,2.5-5.2,5.5c-1,4.7,1.2,8.1,4.3,11.1c1.3,1.3,3,2.2,4.5,3.4
			c0.3,0.3,0.9,0.7,0.6,1.4s-1.2,0.7-1.6,0.5c-6.8-3-12.8-11-9.4-18.7c2-4.7,6.9-6.8,12.1-5.6C28.7,1.33,32.4,4.93,32,10.03z"/>
		<path class="st0" d="M31.2,23.83c-0.7,0-1.9,1.7-2.7,2.5c-4.2,4.1-9.9,4-14-0.7c-1.5-1.7-2.6-1.6-4-0.3c-1.3,1.3-2.4,2.7-3.6,4
			c-0.4,0.4-0.8,1.4-1.6,0.9s-0.7-1.3-0.5-1.8c1.7-3.5,4.6-5.8,8.1-7.2c0.5-0.2,1.7,0.5,2.1,1.1c3.8,6.2,9.4,6.2,13.3,0.1
			c0.8-1.2,1.5-1.7,2.7-1c2.9,1.5,5.6,3.5,7.2,6.5c0.3,0.6,0.3,2-0.1,2.3c-1,0.7-1.4-0.3-1.9-1.1C34.7,27.03,31.9,23.83,31.2,23.83z
			"/>
	</g>
</g>
</svg>
